<svg xmlns="http://www.w3.org/2000/svg" width="360" height="39" viewBox="0 0 360 39" fill="none"><path d="M63.0734 7.79667C63.0321 7.70951 62.9414 7.64983 62.837 7.64793C62.7937 7.64509 62.7463 7.65504 62.6984 7.67825C62.435 7.80425 62.166 7.91272 61.8934 8.00746C61.8914 8.00793 61.8894 8.00888 61.8873 8.00983C60.7538 8.40298 59.5458 8.55267 58.3271 8.6583C57.8656 8.69856 57.4019 8.73219 56.9404 8.77056C53.1402 9.35887 50.1226 11.6775 48.7618 15.0558C48.3379 16.1084 48.0949 17.8766 48.1739 18.8633C48.2146 19.5298 48.3241 20.1763 48.5014 20.7978C48.5091 20.8248 48.5096 20.8262 48.5177 20.8532C48.5361 20.9153 48.4128 21.0683 48.506 21.0418C48.6095 21.0124 48.6538 20.9219 48.6329 20.831C48.5442 20.4444 48.6813 19.9272 48.6594 19.5179C48.5916 18.2442 48.8963 17.0202 49.5454 15.9985C50.6657 14.2624 52.4585 13.1455 54.3823 12.8788C54.53 12.8584 54.6452 12.9589 54.6401 13.0905C54.636 13.1962 54.5525 13.2582 54.4531 13.2805C54.2238 13.3326 53.992 13.3809 53.7781 13.4662C53.5911 13.5405 53.4102 13.6244 53.2304 13.7068C53.1178 13.7584 53.0077 13.8134 52.9007 13.8712C51.9195 14.4178 50.9984 15.2643 50.466 16.2026L50.4644 16.2055C50.2744 16.5413 50.1185 16.8961 50.0018 17.2656C50.0003 17.2812 49.9993 17.2964 49.9983 17.311C49.9978 17.32 49.9973 17.3286 49.9967 17.3371C49.9932 17.4257 49.9753 17.5161 50.0212 17.5692C50.1205 17.6829 50.1832 17.7653 50.3412 17.7686C50.4186 17.77 50.5016 17.7705 50.6061 17.7326C52.0841 17.2007 53.8122 17.24 55.4282 16.9975C55.9968 16.9131 56.5374 16.7535 57.0591 16.565C57.7647 16.3087 58.4173 16.0023 58.9905 15.584C59.2162 15.4196 59.4322 15.2439 59.637 15.0582C59.7807 14.9279 59.9197 14.7925 60.0532 14.6527C60.0772 14.6281 60.1006 14.603 60.1235 14.5779C60.4898 14.1847 60.8174 13.7565 61.1043 13.3013C61.1781 13.1843 61.249 13.065 61.3177 12.9442C61.4059 12.7888 61.4905 12.6315 61.5699 12.471C62.0279 11.5454 62.3112 10.5038 62.6067 9.48392C62.6118 9.46687 62.6164 9.44982 62.6215 9.43324C62.758 8.9624 62.8981 8.49677 63.0596 8.05009C63.0657 8.03351 63.0713 8.01693 63.0775 8.00035C63.107 7.92504 63.1014 7.85446 63.0734 7.79667Z" fill="white"></path><path d="M91.4801 23.1719C91.4801 14.6679 85.3134 7.77441 75.3175 7.77441C65.3217 7.77441 59.155 14.6684 59.155 23.1719C59.155 31.6759 65.2218 38.5694 75.3175 38.5694C79.7199 38.5694 83.2465 37.388 85.8677 35.4009C87.661 33.8629 88.9816 34.0382 88.9816 34.0382C88.9816 34.0382 88.6046 32.6233 85.5437 30.5054C83.6877 29.2213 81.7624 29.7769 80.6915 30.6471C79.1437 31.7237 77.2698 32.3514 75.317 32.3514C71.0278 32.3514 67.3983 29.3241 66.4685 25.2651H91.3634C91.4408 24.5806 91.4801 23.8824 91.4801 23.1719ZM66.791 19.7406C67.9419 16.4016 70.8566 13.9091 75.3175 13.9091C79.7785 13.9091 82.6932 16.402 83.8446 19.7406H66.791Z" fill="white"></path><path d="M21.0898 24.5708H29.6586V28.8671L29.5266 28.9936C24.1196 33.6977 16.342 32.2051 12.3737 29.0679C7.99938 25.6702 6.82096 19.9453 8.48949 15.1133C10.0994 10.4513 13.5328 7.58411 18.8114 6.84707C23.6911 6.31086 26.6068 7.6689 28.5281 9.16716C29.5867 10.0496 31.4586 10.5877 33.3691 9.37463C36.4891 7.39275 37.0678 5.95607 37.0678 5.95607C37.0678 5.95607 35.7575 6.10291 33.9855 4.54403C31.6139 2.44278 27.5458 0 20.2216 0C14.6454 0 8.76256 2.66683 5.72254 5.55297C1.69108 9.38079 0.0189949 14.0949 0.000144377 19.3542C-0.0171777 24.2113 1.52347 28.6056 5.0159 32.2809C8.91592 36.3849 13.9042 38.5619 19.7641 38.5619C28.0777 38.5619 33.5403 35.3883 37.0113 31.3416V18.4627V18.4603L21.0898 18.4627V24.5708V24.5708Z" fill="white"></path><path d="M126.887 23.1719C126.887 14.6679 120.72 7.77441 110.725 7.77441C100.729 7.77441 94.562 14.6684 94.562 23.1719C94.562 31.6759 100.628 38.5694 110.725 38.5694C115.127 38.5694 118.653 37.388 121.275 35.4009C123.069 33.8629 124.389 34.0382 124.389 34.0382C124.389 34.0382 124.013 32.6233 120.951 30.5054C119.095 29.2213 117.17 29.7769 116.099 30.6471C114.551 31.7237 112.678 32.3514 110.725 32.3514C106.436 32.3514 102.806 29.3241 101.877 25.2651H126.771C126.847 24.5806 126.887 23.8824 126.887 23.1719ZM102.198 19.7406C103.349 16.4016 106.264 13.9091 110.725 13.9091C115.185 13.9091 118.1 16.402 119.252 19.7406H102.198Z" fill="white"></path><path d="M157.716 35.0656C157.716 35.0656 157.723 28.9357 157.723 19.5748C157.723 10.2139 149.778 7.72278 146.119 7.72278C142.961 7.72278 140.208 8.63888 137.284 10.7231V7.71094H129.967V38.5699H137.263C137.263 33.8733 137.284 21.343 137.284 19.5748C137.284 16.439 140.629 13.8963 144.001 13.8963C147.946 13.8963 150.427 16.4385 150.427 19.5748V35.0604C150.524 36.3995 151.406 38.1075 153.685 38.4064C157.443 38.8995 158.918 38.117 158.918 38.117C158.918 38.117 157.927 37.3615 157.716 35.0656Z" fill="white"></path><path d="M166.874 38.7446V0.470171L169.331 0.46875C173.875 0.46875 177.444 0.484855 182.019 0.697064C186.139 0.888432 189.841 2.00206 193.024 4.00762C196.454 6.16951 198.595 9.11249 199.568 13.0052C200.051 14.9326 200.348 17.4611 200.346 19.605C200.348 21.7536 200.051 24.2831 199.569 26.2095C198.595 30.1023 196.455 33.0452 193.024 35.2076C189.841 37.2127 186.139 38.3268 182.019 38.5172C177.454 38.7289 173.897 38.7455 169.373 38.7455L166.874 38.7446ZM175.037 2.993C173.792 2.993 172.973 3.01621 172.973 3.01621L169.927 3.08394L169.926 36.1308L172.973 36.199C172.973 36.199 173.794 36.2222 175.042 36.2222C178.282 36.2222 182.726 36.0735 185.505 35.3625C192.898 33.472 197.158 29.9313 197.158 19.6078C197.158 9.48433 192.898 5.74461 185.505 3.8532C182.725 3.14173 178.278 2.993 175.037 2.993Z" fill="white"></path><path d="M337.293 34.741C340.103 37.2871 344.151 38.7275 348.606 38.7275H348.607C351.193 38.7275 353.723 38.2193 355.731 37.2961C358.159 36.1801 359.744 34.0068 359.972 31.4831C360.201 28.9465 359.021 26.5464 356.816 25.0609C354.884 23.7602 352.533 23.1671 349.882 22.5783L349.392 22.4698C347.654 22.0857 345.856 21.6887 344.088 21.1374C341.613 20.3672 340.039 18.2711 340.259 16.0415C340.384 14.7976 341.069 12.5576 344.276 11.516C345.331 11.173 346.454 10.9992 347.615 10.9992C350.675 10.9992 352.096 11.6723 353.447 12.7021C356.268 14.8531 359.239 13.9753 358.989 11.2644C354.824 12.4264 355.435 8.97656 347.588 8.97656C345.741 8.97656 343.98 9.28919 342.351 9.90593C339.162 11.1124 337.579 13.0227 337.368 15.9174C337.144 18.9774 338.301 21.1478 341.01 22.7493C342.665 23.727 344.551 24.2334 346.844 24.7947C348.801 25.2726 351.119 25.8619 353.465 26.6098C355.765 27.3445 357.11 29.1777 356.975 31.3954C356.816 33.9808 354.856 35.9267 351.859 36.4738C350.916 36.6462 349.959 36.7338 349.015 36.7338C347.119 36.7338 345.224 36.3828 343.379 35.6917C341.866 35.1242 340.482 34.2906 339.134 33.1229L337.293 34.741Z" fill="white"></path><path d="M205.347 38.7275H208.548L208.545 27.4695L208.545 27.2748C208.545 25.2006 208.596 24.185 208.81 22.0027C209.107 18.9816 212.093 14.6233 217.333 13.6659C221.997 12.8138 220.315 9.49328 220.082 9.06934C219.663 9.53212 218.765 10.2332 216.833 10.849C209.544 13.1724 208.549 16.8439 208.549 16.8439L208.546 10.8343V9.13897H205.348V12.4524V12.5229V38.7275H205.347Z" fill="white"></path><path d="M307.241 38.7287H310.439V19.8994C310.439 15.2407 314.873 11.3059 320.122 11.3059C325.597 11.3059 329.133 14.6785 329.133 19.8994V37.0192C329.187 37.5587 329.463 38.4146 330.645 38.57C331.326 38.6591 331.97 38.7112 332.564 38.7249C332.465 38.2981 332.388 37.8277 332.34 37.3086L332.331 37.212V37.1139V19.8994C332.331 15.1398 331.111 13.5326 329.387 11.7824C327.367 9.73039 323.559 8.99902 320.67 8.99902C313.671 8.99902 309.922 14.7216 309.922 14.7216C309.922 14.7216 307.007 9.00992 300.49 9.00992C291.762 9.00992 288.312 14.9499 288.312 14.9499V10.2472V9.00992H285.347V38.7292H288.545V19.8994C288.545 15.2407 292.937 11.3059 298.136 11.3059C303.496 11.3059 307.239 14.8395 307.239 19.8994V38.7287H307.241Z" fill="white"></path><path d="M236.385 38.7284C228.666 38.7284 220.877 34.1427 220.877 23.8979C220.877 15.166 227.255 9.06738 236.385 9.06738C245.516 9.06738 251.893 15.7856 251.893 24.5175C251.893 24.5321 251.893 24.5463 251.893 24.561H223.516C223.516 24.561 223.542 36.3832 236.385 36.3832C239.045 36.3832 241.619 35.5713 243.829 34.0347L243.904 33.9826L243.974 33.9257C244.1 33.8234 244.557 33.4899 245.168 33.4899C245.541 33.4899 245.905 33.6178 246.285 33.8802C246.829 34.2573 247.278 34.604 247.646 34.9157C247.277 35.1511 246.897 35.4297 246.507 35.7598C243.881 37.7294 240.476 38.7284 236.385 38.7284ZM236.385 11.3193C224.371 11.3193 223.542 22.3669 223.542 22.3669H249.229C249.228 22.3669 248.196 11.3193 236.385 11.3193Z" fill="white"></path><path d="M264.531 38.728C262.322 38.728 260.366 38.1629 258.552 37C255.931 35.3198 254.923 32.9879 255.381 29.6608C255.999 25.1759 259.897 23.447 263.058 22.7872C264.396 22.5077 265.778 22.3656 267.164 22.3656C268.966 22.3656 270.862 22.6062 272.8 23.0813C273.135 23.1628 277.21 24.1267 277.21 24.1267L277.201 19.11C277.201 14.4575 273.358 11.3317 267.638 11.3317C267.521 11.3317 267.402 11.3359 267.284 11.3359C263.356 11.3359 262.481 14.4021 259.483 14.4021C257.903 14.4021 257.318 13.3874 256.973 13.1136C257.287 12.8915 257.792 12.7892 259.174 11.7712C261.791 9.8443 263.208 9.23514 267.315 8.9893C267.651 8.96893 267.991 8.95898 268.333 8.95898C272.793 8.95898 280.342 10.9224 280.342 18.2839V38.728H277.204V34.4511C277.205 34.4511 272.854 38.728 264.531 38.728ZM267.081 24.1116C260.778 24.1116 258.542 27.5226 258.542 30.4437C258.542 32.2797 259.374 36.5486 267.081 36.5486C271.361 36.5486 275.18 34.0513 276.249 33.2858L277.205 32.6004V26.038L275.468 25.5445C271.843 24.5128 269.492 24.1116 267.081 24.1116Z" fill="white"></path><path d="M43.7952 38.4097C47.4201 38.8729 50.0734 38.1373 50.0734 38.1373C50.0734 38.1373 48.9694 36.8157 48.7651 34.6581C48.7651 34.6581 48.6214 15.9723 48.6229 7.88184H41.2473V35.2644C41.2473 36.523 41.5968 38.1288 43.7952 38.4097Z" fill="white"></path></svg>